<svg width="60" height="60" viewBox="0 0 60 60" fill="none" xmlns="http://www.w3.org/2000/svg">
<path fill-rule="evenodd" clip-rule="evenodd" d="M11.1751 51.2594C7.32506 51.2594 4.92506 47.0844 6.85006 43.7594L25.6751 11.2344C27.6001 7.90935 32.4001 7.90935 34.3251 11.2344L53.1501 43.7594C55.0751 47.0844 52.6751 51.2594 48.8251 51.2594H11.1751ZM48.8251 46.2594L30.0001 13.7344L11.1751 46.2594H48.8251ZM27.5001 26.2594V31.2594C27.5001 32.6344 28.6251 33.7594 30.0001 33.7594C31.3751 33.7594 32.5001 32.6344 32.5001 31.2594V26.2594C32.5001 24.8844 31.3751 23.7594 30.0001 23.7594C28.6251 23.7594 27.5001 24.8844 27.5001 26.2594ZM32.5001 43.7594V38.7594H27.5001V43.7594H32.5001Z" fill="#5C5C5C"/>
</svg>
